<?xml version="1.0" encoding="UTF-8" standalone="no"?>
<svg width="80px" height="80px" viewBox="0 0 80 80" version="1.1" xmlns="http://www.w3.org/2000/svg" xmlns:xlink="http://www.w3.org/1999/xlink">
    <!-- Generator: Sketch 3.7.2 (28276) - http://www.bohemiancoding.com/sketch -->
    <title>Slice 1</title>
    <desc>Created with Sketch.</desc>
    <defs></defs>
    <g id="Page-1" stroke="none" stroke-width="1" fill="none" fill-rule="evenodd">
        <g id="twitter" transform="translate(11.000000, 17.000000)" fill="#FF6868">
            <path d="M59.242163,5.88956596 C57.1954705,6.76182504 54.8563934,7.34333108 52.2249317,7.63408414 C54.5640088,6.18031898 56.6107012,3.85429479 57.4878552,1.23751756 C55.1487781,2.69128269 52.5173163,3.56354176 49.8858546,4.14504781 C47.8391621,1.81902361 44.6229312,0.365258488 41.1143156,0.365258488 C34.3894689,0.365258488 29.1265455,5.59881293 29.1265455,11.9953795 C29.1265455,12.8676386 29.1265455,13.7398976 29.4189301,14.6121567 C19.4778525,14.3214037 10.7063134,9.66935528 4.85862072,2.40052966 C3.68908218,4.14504781 3.10431291,6.18031898 3.10431291,8.21559019 C3.10431291,12.2861325 5.15100536,15.7751688 8.36723632,17.81044 C6.61292854,18.101193 4.85862072,17.519687 3.10431291,16.6474279 C3.10431291,16.6474279 3.10431291,16.6474279 3.10431291,16.9381809 C3.10431291,22.4624884 7.19769781,27.4052898 12.7530059,28.2775489 C11.8758519,28.5683019 10.7063134,28.5683019 9.53677486,28.5683019 C8.65962099,28.5683019 8.07485172,28.5683019 7.19769781,28.2775489 C8.65962099,32.9295973 13.0453905,36.4186336 18.308314,36.4186336 C14.214929,39.6169169 8.95200559,41.361435 3.39669755,41.361435 C2.51954364,41.361435 1.3500051,41.361435 0.472851187,41.070682 C5.73577463,44.2689653 12.1682366,46.3042364 18.8930833,46.3042364 C40.8219309,46.3042364 52.809701,28.5683019 52.809701,13.1583916 L52.809701,11.7046265 C55.4411627,10.2508613 57.4878552,8.21559019 59.242163,5.88956596 L59.242163,5.88956596 L59.242163,5.88956596 L59.242163,5.88956596 L59.242163,5.88956596 Z"></path>
        </g>
    </g>
</svg>